<?xml version="1.0" encoding="UTF-8"?>
<svg width="160px" height="41px" viewBox="0 0 160 41" version="1.1" xmlns="http://www.w3.org/2000/svg" xmlns:xlink="http://www.w3.org/1999/xlink">
    <!-- Generator: Sketch 46 (44423) - http://www.bohemiancoding.com/sketch -->
    <title>logo-dark</title>
    <desc>Created with Sketch.</desc>
    <defs>
        <path d="M0.00729714453,3.01899374 C0.00326704289,2.98381899 0.0269769492,2.95033586 0.0602164045,2.94421414 L15.6393828,0.0749905481 C16.1864049,-0.0257548122 17.0746623,-0.0255044534 17.620325,0.0749905481 L33.1994914,2.94421414 C33.232748,2.95033902 33.255551,2.99132014 33.2523571,3.01899374 L30.7046316,25.0935104 C30.7005719,25.1286851 30.6744607,25.1699225 30.6345623,25.1921665 L16.6925725,32.9650334 C16.657934,32.9843449 16.6070034,32.9872774 16.5670521,32.9650334 L2.60655539,25.1921665 C2.57187088,25.172855 2.53962705,25.121184 2.53645639,25.0935104 L0.00729714453,3.01899374 Z" id="path-1"></path>
        <radialGradient cx="50%" cy="45.6443555%" fx="50%" fy="45.6443555%" r="44.7509486%" gradientTransform="translate(0.500000,0.456444),scale(0.985396,1.000000),rotate(90.000000),translate(-0.500000,-0.456444)" id="radialGradient-3">
            <stop stop-color="#F0F0F0" offset="0%"></stop>
            <stop stop-color="#FFFFFF" offset="100%"></stop>
        </radialGradient>
        <path d="M-1.33566406,3.2203557 C-1.42477423,2.4448619 -0.871924295,1.70141173 -0.102226664,1.56006806 L15.267612,-1.26237723 C16.0379309,-1.40383498 17.2874856,-1.40372091 18.0571833,-1.26237723 L33.427022,1.56006806 C34.1973408,1.7015258 34.7498286,2.4380427 34.6592749,3.2203557 L32.1862303,24.5855368 C32.0964659,25.3610306 31.4679057,26.2986543 30.7796299,26.6812632 L17.9064653,33.8373869 C17.2193857,34.2193308 16.1149551,34.2250406 15.4296506,33.8445884 L2.5134539,26.6740617 C1.83262649,26.2960951 1.20925235,25.3678498 1.1193586,24.5855368 L-1.33566406,3.2203557 Z" id="path-4"></path>
        <radialGradient cx="50%" cy="50%" fx="50%" fy="50%" r="50%" gradientTransform="translate(0.500000,0.500000),scale(0.741487,1.000000),rotate(90.000000),translate(-0.500000,-0.500000)" id="radialGradient-6">
            <stop stop-color="#CF2E21" offset="0%"></stop>
            <stop stop-color="#D41923" offset="100%"></stop>
        </radialGradient>
    </defs>
    <g id="Page-1" stroke="none" stroke-width="1" fill="none" fill-rule="evenodd">
        <g id="UK-mobile" transform="translate(-44.000000, -18.000000)">
            <g id="Header">
                <g id="logo-dark" transform="translate(48.000000, 20.000000)">
                    <g id="Red-Badge" transform="translate(0.000000, 2.000000)">
                        <mask id="mask-2" fill="white">
                            <use xlink:href="#path-1"></use>
                        </mask>
                        <g id="Mask">
                            <use fill="#FFFFFF" fill-rule="evenodd" xlink:href="#path-1"></use>
                            <path stroke="#FFFFFF" stroke-width="3.67393706" d="M-1.81773174,3.22809407 C-1.92982362,2.24975552 -1.27308514,1.32190639 -0.272503421,1.13762871 L15.3066629,-1.73159488 C16.073233,-1.8727745 17.1870025,-1.87267732 17.9530449,-1.73159488 L33.5322112,1.13762871 C34.5625598,1.32738857 35.1865763,2.28203128 35.0772118,3.22960895 L32.5294863,25.3041256 C32.4563173,25.9380912 32.075496,26.4919913 31.5290743,26.7966295 L17.5870845,34.5694965 C17.0043996,34.894352 16.2776894,34.9064293 15.6734451,34.5700007 L1.71294842,26.7971337 C1.16880713,26.494169 0.783024432,25.9275091 0.711427502,25.3026107 L-1.81773174,3.22809407 Z"></path>
                        </g>
                        <mask id="mask-5" fill="white">
                            <use xlink:href="#path-4"></use>
                        </mask>
                        <use id="Mask" fill="url(#radialGradient-3)" xlink:href="#path-4"></use>
                        <rect id="Rectangle-5" fill="url(#radialGradient-6)" mask="url(#mask-5)" x="-11.5230484" y="-6.39534884" width="57.6152419" height="42.7209302"></rect>
                        <path d="M9.16606121,10.2387472 C9.16606121,10.0489488 9.1999408,9.74053102 9.267701,9.31348462 C9.3354612,8.88643822 9.42258015,8.45939823 9.52906046,8.03235184 C9.63554078,7.60530544 9.7420195,7.22571434 9.84849981,6.89356714 C9.95498012,6.56141994 10.046939,6.39534884 10.1243792,6.39534884 L22.6405936,6.39534884 C22.8535542,6.43330852 23.0616717,6.60412451 23.2649523,6.90780195 C23.4682329,7.21147939 23.5698717,7.51515227 23.5698717,7.81882971 L23.5698717,22.9077269 C23.5698717,22.9646665 23.5359921,23.0548193 23.4682319,23.1781883 C23.4004717,23.3015573 23.3181927,23.4296693 23.2213924,23.5625281 C23.1245921,23.695387 23.0277933,23.8092643 22.930993,23.9041635 C22.8341927,23.9990627 22.7567536,24.0465116 22.6986735,24.0465116 L10.4438186,24.0465116 L10.4438186,10.2387472 L9.16606121,10.2387472 Z M15.0902091,10.2387472 L15.0902091,20.2031133 L18.9234812,20.2031133 L18.9234812,10.2387472 L15.0902091,10.2387472 Z" id="D" fill="#FFFFFF" mask="url(#mask-5)"></path>
                    </g>
                    <path d="M61.9739002,35.7728022 L61.7358554,35.7728022 C57.9589028,35.7728022 54.1819501,35.7727144 50.4049083,35.7727144 L50.3603864,35.7727144 C50.0009103,35.7716606 50.0001965,35.7716606 50.0001073,35.4219808 C49.9999289,31.3386652 50.0000181,27.2553497 50.0000181,23.1721219 L50.0000181,22.0833022 L48.9686099,22.0833022 C48.9686099,21.925674 49.4717336,19.6102526 49.4717336,19.6102526 C49.4938607,19.517432 49.5969123,19.3506711 49.7805316,19.3507589 C53.8177453,19.3523396 57.854959,19.3523396 61.8920834,19.3530421 C61.9137644,19.3530421 61.9353562,19.3585745 61.9739002,19.3637556 L61.9739002,35.7728022 Z M58.3574582,33.0381514 L58.3574582,22.0821606 C56.8844003,22.0821606 55.4423024,22.081985 54.0002938,22.0823362 C53.7427094,22.082424 53.6033444,22.2205572 53.6032552,22.4740795 C53.603166,25.8399455 53.6032552,29.2058114 53.6032552,32.5716774 L53.6032552,32.7934106 C53.853791,33.1487106 54.1856082,33.0322677 54.4818258,33.0344631 C55.6862358,33.0433324 56.8905566,33.0381514 58.0949666,33.0381514 L58.3574582,33.0381514 Z M70.9105081,35.7591645 L67.3443874,35.7591645 L67.3443874,35.3785738 C67.3423353,30.8055132 67.340997,26.2325406 67.3356437,21.6594801 C67.335376,21.4892943 67.3997052,21.2919738 67.2005613,21.1665738 C67.1792372,21.153138 67.1792372,21.0979901 67.1792372,21.0621616 C67.1779881,20.5005838 67.178345,19.9390061 67.178345,19.3639927 L79.3430733,19.3639927 C79.3430733,19.4633116 79.3429841,19.5560443 79.3430733,19.6488649 C79.3435194,22.4877523 79.3408427,25.3267275 79.3501218,28.1656149 C79.3505058,28.2806959 77.698908,29.9897563 77.6154645,30.029491 C77.5760283,30.2195229 79.2770489,31.5150595 79.3339726,31.5330616 L79.3339726,35.7562666 L75.7321631,35.7562666 L75.7321631,35.5181998 C75.7321631,34.1499523 75.7323415,32.7817048 75.7320739,31.4134574 C75.7319846,31.0541179 75.7300218,31.0524494 75.3783972,31.0524494 C74.2632986,31.0524494 73.1481108,31.0432288 72.0331906,31.0576305 C71.6596174,31.0622847 71.2550841,30.9299473 70.9105081,31.2599565 L70.9105081,35.7591645 Z M75.7139618,28.3044506 L75.7139618,22.0822221 L75.4787721,22.0822221 C74.0814638,22.0822221 72.6840663,22.0820464 71.2866688,22.0823099 C70.9129171,22.0823977 70.9112219,22.0838027 70.9112219,22.4437569 C70.910865,24.3238788 70.9109542,26.2040006 70.9114896,28.0839469 C70.9114896,28.154638 70.9180028,28.2252414 70.9218393,28.3044506 L75.7139618,28.3044506 Z M86.3710407,22.0820113 L83.4607922,22.0820113 C83.4607922,22.0152311 83.6549203,19.4739021 83.7599348,19.3535075 C83.7926793,19.3159227 83.917342,19.3536832 83.9787268,19.3535075 C84.677604,19.3506974 85.3764812,19.3516634 86.0753585,19.3516634 L92.3425909,19.3516634 L92.6898436,19.3535075 C92.6898436,19.7803769 92.8850617,21.712134 92.8850617,22.0823626 L89.9900701,22.0823626 C89.9790066,22.2082017 89.9616083,22.3146336 89.961519,22.4211533 C89.9600915,25.845592 89.9602699,29.2701185 89.9605376,32.6946449 C89.9605376,33.0262348 89.9730287,33.0377386 90.3145711,33.0380021 C91.0876812,33.038529 91.8608805,33.0381777 92.6340797,33.0381777 L92.8850617,33.0380021 C92.8850617,33.238205 92.6898436,35.7726529 92.6898436,35.7726529 L92.3731941,35.7726529 C89.5926746,35.7726529 86.5403651,35.7727407 83.7599348,35.7726529 C83.752333,35.7726529 83.4607922,33.1093969 83.4607922,33.0444126 L86.3710407,33.0444126 L86.3710407,22.0820113 Z M97.1979094,35.7570043 L97.1979094,35.381858 C97.1979094,31.4891013 97.199337,27.5963446 97.196928,23.7035879 C97.1963034,22.7377971 97.1868459,21.7719185 97.1716781,20.8063034 C97.1701613,20.7125169 97.0984267,20.6201353 97.0613995,20.5263488 C97.0459641,20.4875345 97.0255322,20.4468761 97.0251753,20.4069202 C97.0223202,20.0643534 97.0234801,19.7218744 97.0234801,19.3650816 L109.190974,19.3650816 L109.190974,19.5624022 C109.190974,21.5600206 109.195703,23.5576391 109.18455,25.5551698 C109.183301,25.7814694 107.732727,27.4730522 107.656085,27.5154669 C107.664829,27.6008232 109.064351,28.7498402 109.064351,28.7498402 C109.130193,28.8041348 109.182998,28.9104305 109.182196,29.0060231 C109.182196,29.0060231 109.16965,30.2619727 109.183569,31.0458984 C109.209622,32.5089862 109.191064,33.9726887 109.191064,35.4361278 L109.191064,35.7570043 L97.1979094,35.7570043 Z M105.610667,22.082345 C104.087823,22.082345 102.601025,22.0815547 101.114138,22.0834866 C100.964512,22.0837501 100.803912,22.2700059 100.803823,22.4308832 C100.803377,23.6163874 100.803288,24.8018917 100.80418,25.9874837 C100.804269,26.0800408 100.813102,26.172598 100.818456,26.2758685 L105.610667,26.2758685 L105.610667,22.082345 Z M100.803556,28.8481492 L100.803556,29.2030101 L100.803556,32.6268341 C100.803645,32.9055593 100.939084,33.0378967 101.226201,33.0379845 C102.608698,33.038248 103.991374,33.038248 105.373872,33.0376332 C105.445695,33.0375454 105.517519,33.0305202 105.609597,33.0256904 L105.609597,28.8481492 L100.803556,28.8481492 Z M125.751492,28.7655858 C125.818739,28.8130321 125.872844,28.9251945 125.872397,29.0103214 C125.872397,29.0103214 125.871111,29.2232164 125.87129,29.3143685 C125.873877,31.2316361 125.873253,33.1489916 125.873253,35.0662593 L125.873253,35.7578034 L113.829153,35.7578034 L113.829153,35.4917235 C113.827368,31.0058635 113.826655,26.5200912 113.819695,22.0343189 C113.819428,21.845253 113.902315,21.6214122 113.680866,21.4773954 C113.664449,21.4667698 113.667571,21.421984 113.667482,21.3930051 C113.666858,20.7214828 113.666947,20.0499605 113.666947,19.3645635 L125.873253,19.3645635 L125.873253,19.6710382 C125.873253,21.5883059 125.875662,23.5055735 125.868435,25.4228412 C125.868037,25.5122556 124.250029,27.5089331 124.15189,27.5790538 C124.182047,27.6620391 125.751492,28.7655858 125.751492,28.7655858 Z M117.45193,26.2685887 L122.260201,26.2685887 C122.260201,24.9335353 122.257971,23.6178891 122.262521,22.3021551 C122.263146,22.0883252 122.136807,22.0805975 121.975136,22.0808609 C120.526615,22.0832319 119.078093,22.0820903 117.629571,22.0829685 C117.573361,22.0829685 117.517062,22.0942088 117.45193,22.1010584 L117.45193,26.2685887 Z M122.261093,28.851495 L117.46451,28.851495 L117.46451,33.0381689 C117.561137,33.0381689 117.634478,33.0380811 117.707729,33.0380811 C119.082465,33.0381689 120.4572,33.0382567 121.831846,33.0380811 C122.145997,33.0379933 122.261004,32.9262924 122.261093,32.6231546 L122.261093,31.7894378 L122.261093,28.851495 Z M130.173199,19.3585393 L133.77144,19.3585393 L133.77144,19.6407772 C133.77144,23.9726095 133.77135,28.3044419 133.77144,32.6362742 C133.77144,32.9473154 133.864231,33.0380284 134.18204,33.0380284 C136.293393,33.0381162 138.404836,33.0380284 140.516189,33.038204 C140.590511,33.038204 140.666618,33.0302129 140.73862,33.0433851 C140.806072,33.0555914 140.865424,33.01827 140.930377,33.0433851 C140.891744,33.0862389 140.476753,35.6375318 140.417063,35.7586288 L130.173199,35.7586288 L130.173199,19.3585393 Z M154.337853,26.2880046 L154.337853,28.8358727 L154.065012,28.8358727 C152.503535,28.8360483 150.942058,28.8457958 149.380938,28.8263008 C149.251901,28.8247197 148.993721,28.7912144 148.851413,28.8845168 C148.709105,28.9778192 148.708825,29.1761194 148.671175,29.2062769 L148.671175,31.1417222 C148.671175,31.5149365 148.662967,31.8884143 148.674923,32.2611895 C148.677345,32.3353224 148.619609,32.7335161 148.803956,32.890314 C148.988302,33.0471119 149.519842,33.0372117 149.573122,33.0372117 C151.52111,33.0384411 153.469186,33.0381777 155.417263,33.0381777 L155.722382,33.0381777 C155.722382,33.0381777 155.367477,35.6489214 155.343566,35.762642 L145.119955,35.762642 L145.119955,19.3646601 L155.063229,19.3646601 C155.063229,19.5664592 155.222491,21.4842538 155.222491,22.0821869 L154.971509,22.0821869 C153.164671,22.0821869 151.357922,22.0804306 149.551173,22.0858752 C149.484579,22.0860593 149.015075,21.9914421 148.803956,22.1197324 C148.612289,22.2362019 148.67434,22.5753203 148.674298,22.6005596 C148.671621,23.6616298 148.665911,24.7228756 148.68206,25.7837701 C148.683756,25.8931878 148.797692,26.0325504 148.899138,26.1028903 C149.182864,26.2994206 149.190984,26.2880046 149.635221,26.2880046 L154.074113,26.2880046 L154.337853,26.2880046 Z" id="Combined-Shape" fill="#FFFFFF"></path>
                    <g id="SkyBet-Logo" transform="translate(48.456204, 0.000000)">
                        <path d="M1.85083618,0 L27.7913162,0 L27.7913162,13.8947368 L1.85083618,13.8947368 L1.85083618,13.8947368 C0.828647583,13.8947368 1.23540502e-15,13.0660893 1.11022302e-15,12.0439007 L0,1.85083618 L2.22044605e-16,1.85083618 C9.68626057e-17,0.828647583 0.828647583,1.29799602e-15 1.85083618,1.11022302e-15 Z" id="Blue" fill="#053C7F"></path>
                        <path d="M27.7913162,0 L55.6053682,0 L55.6053682,2.22044605e-16 C56.6275568,-1.7815001e-15 57.4562044,0.828647583 57.4562044,1.85083618 L57.4562044,12.0439007 L57.4562044,12.0439007 C57.4562044,13.0660893 56.6275568,13.8947368 55.6053682,13.8947368 L27.7913162,13.8947368 L27.7913162,0 Z" id="Red" fill="#D21F22"></path>
                        <path d="M9.08834072,3.38712887 C9.08834072,3.38712887 9.14033356,3.50229119 9.14033356,3.65571271 C9.24447171,5.2304253 7.63276992,5.03052619 7.63276992,5.03052619 C7.63276992,5.03052619 6.64467726,4.96152672 6.14769586,4.96152672 C5.65071445,4.96152672 4.96535429,5.04147238 4.96280039,5.42011263 C4.96024649,5.79875288 5.74193062,5.84456601 5.74193062,5.84456601 C7.51700581,6.05292831 8.03449465,6.28325293 8.03449465,6.28325293 C9.48431743,6.82937491 9.71660191,7.89711556 9.55303625,8.66952235 C9.40498381,9.36867104 8.92176542,9.80323988 8.92176542,9.80323988 C8.92176542,9.80323988 8.26529865,10.5172952 6.47894056,10.5172952 C4.69258247,10.5172952 3.16466387,10.3443943 3.16466387,10.3443943 C2.73900108,8.47980005 4.49391189,8.66952235 4.49391189,8.66952235 L6.64467726,8.76184804 C6.64467726,8.76184804 7.49108562,8.73065315 7.49108562,8.3080183 C7.49108562,7.88538346 6.83275107,7.8065569 6.83275107,7.8065569 L5.07886945,7.50989068 C5.07886945,7.50989068 2.88876638,7.28390256 2.88876638,5.43105882 C2.88876638,3.57821508 4.96783195,3.22087269 6.46700965,3.22087269 C7.96618735,3.22087269 9.08834072,3.38712887 9.08834072,3.38712887 Z M12.3763542,0.790503764 L12.3763542,9.59838475 C12.3763542,9.59838475 12.4909366,10.6969806 10.2875304,10.4764131 L10.2875304,2.00321985 C10.2875304,2.00321985 10.2213959,0.737556379 11.7044115,0.737556379 C12.0724019,0.737556379 12.3763542,0.790503764 12.3763542,0.790503764 Z M12.4792344,6.68714286 L15.3291586,3.81724769 C15.3291586,3.81724769 16.1636361,2.80439289 17.9822801,3.31082029 L20.6501912,7.31055111 L22.1309961,4.13276375 C22.1309961,4.13276375 22.735127,2.66069355 24.6170467,3.44651108 L20.3680424,12.1646793 C20.3680424,12.1646793 19.7704678,13.4651074 17.9131342,12.7729797 L19.6808145,9.33475694 L16.7458873,5.11061173 L14.9876602,6.82993294 L17.4787424,10.3277128 C17.4787424,10.3277128 15.5430002,11.1400739 14.628132,9.81002442 C13.7132639,8.47997491 12.4792344,6.68714286 12.4792344,6.68714286 Z M31.2771998,3.7349939 C31.2771998,3.7349939 31.2771998,4.49895402 31.2771998,3.5473699 C31.2771998,2.59578579 32.4730351,2.66562458 32.4730351,2.66562458 L35.0970344,2.66300169 C38.2859794,2.66300169 38.2102772,4.88399412 38.2102772,4.88399412 C38.2058936,6.34602741 36.7879834,6.72617145 36.7879834,6.72617145 C38.6073135,7.13474761 38.5568453,8.71579011 38.5568453,8.71579011 C38.5568453,11.2981117 34.7663391,11.1380106 34.7663391,11.1380106 L32.3988195,11.1380106 C31.1487805,11.1380106 31.2771998,10.0541725 31.2771998,10.0541725 L31.2771998,3.7349939 Z M33.4807585,4.28803878 L33.4807585,6.07401747 L34.7015264,6.07401747 C34.7015264,6.07401747 35.9756524,6.06926017 35.9756524,5.18968309 C35.9756524,4.31010602 34.9686152,4.28803878 34.7282055,4.28803878 L33.4807585,4.28803878 Z M33.4832743,7.55157712 L33.4832743,9.46296719 L34.754469,9.46296719 C34.754469,9.46296719 36.1728936,9.4990547 36.1728936,8.53951448 C36.1728936,7.57997427 35.166085,7.55157712 34.8568534,7.55157712 L33.4832743,7.55157712 Z M39.6595205,6.55729237 C39.6595205,6.55729237 39.6595205,5.06784122 39.6595205,3.83796846 C39.6595205,2.60809571 40.7703152,2.67618608 40.7703152,2.67618608 L45.6211246,2.67618608 C46.0339609,4.6478292 44.9073228,4.57296846 44.9073228,4.57296846 L41.9649969,4.57296846 L41.9649969,6.06247563 L45.2931962,6.06247563 C45.6279669,7.85133836 44.5866071,7.77005503 44.5866071,7.77005503 L41.9649969,7.77005503 L41.9649969,9.25551072 L45.7732914,9.25551072 C45.7732914,9.25551072 45.789072,9.48282776 45.8311544,10.1036831 C45.9251914,11.1910979 44.8629711,11.1381505 44.8629711,11.1381505 C44.8629711,11.1381505 42.1422166,11.1381505 40.8513153,11.1381505 C39.5604139,11.1381505 39.6595205,10.0591755 39.6595205,10.0591755 L39.6595205,6.55729237 Z M46.4867444,4.57159056 C46.4867444,4.57159056 46.4379154,4.43390637 46.4100131,4.26317379 C46.0631019,2.63275104 47.3693369,2.68353016 47.3693369,2.68353016 L54.088372,2.68353016 C54.6050411,4.67265921 53.1864418,4.57159056 53.1864418,4.57159056 L51.4682226,4.57159056 L51.4682226,10.2662672 C51.4682226,11.6341563 49.1620834,11.0918834 49.1620834,11.0918834 L49.1620834,4.57159056 L46.4867444,4.57159056 Z" id="Text" fill="#FFFFFF"></path>
                    </g>
                </g>
            </g>
        </g>
    </g>
</svg>